<svg width="137" height="29" viewBox="0 0 137 29" fill="none" xmlns="http://www.w3.org/2000/svg">
<path d="M18.7207 20.8467C17.7441 21.6865 16.6504 22.3311 15.4395 22.7803C14.2285 23.2295 12.9736 23.4541 11.6748 23.4541C10.6787 23.4541 9.7168 23.3223 8.78906 23.0586C7.87109 22.8047 7.00684 22.4434 6.19629 21.9746C5.39551 21.4961 4.66309 20.9248 3.99902 20.2607C3.33496 19.5967 2.76367 18.8643 2.28516 18.0635C1.81641 17.2529 1.4502 16.3887 1.18652 15.4707C0.932617 14.543 0.805664 13.5811 0.805664 12.585C0.805664 11.5889 0.932617 10.627 1.18652 9.69922C1.4502 8.77148 1.81641 7.90723 2.28516 7.10645C2.76367 6.2959 3.33496 5.55859 3.99902 4.89453C4.66309 4.23047 5.39551 3.66406 6.19629 3.19531C7.00684 2.7168 7.87109 2.35059 8.78906 2.09668C9.7168 1.83301 10.6787 1.70117 11.6748 1.70117C12.9736 1.70117 14.2285 1.92578 15.4395 2.375C16.6504 2.81445 17.7441 3.45898 18.7207 4.30859L16.4941 7.9707C15.8789 7.30664 15.1514 6.79883 14.3115 6.44727C13.4717 6.08594 12.5928 5.90527 11.6748 5.90527C10.7471 5.90527 9.87793 6.08105 9.06738 6.43262C8.25684 6.78418 7.54883 7.2627 6.94336 7.86816C6.33789 8.46387 5.85938 9.17188 5.50781 9.99219C5.15625 10.8027 4.98047 11.667 4.98047 12.585C4.98047 13.5029 5.15625 14.3672 5.50781 15.1777C5.85938 15.9785 6.33789 16.6816 6.94336 17.2871C7.54883 17.8926 8.25684 18.3711 9.06738 18.7227C9.87793 19.0742 10.7471 19.25 11.6748 19.25C12.5928 19.25 13.4717 19.0742 14.3115 18.7227C15.1514 18.3613 15.8789 17.8486 16.4941 17.1846L18.7207 20.8467ZM55.1279 23H54.1611L52.6084 20.8467C52.2275 21.1885 51.8223 21.5107 51.3926 21.8135C50.9727 22.1064 50.5283 22.3652 50.0596 22.5898C49.5908 22.8047 49.1074 22.9756 48.6094 23.1025C48.1211 23.2295 47.623 23.293 47.1152 23.293C46.0117 23.293 44.9717 23.0879 43.9951 22.6777C43.0283 22.2578 42.1787 21.6816 41.4463 20.9492C40.7236 20.207 40.1523 19.333 39.7324 18.3271C39.3125 17.3115 39.1025 16.208 39.1025 15.0166C39.1025 13.835 39.3125 12.7363 39.7324 11.7207C40.1523 10.7051 40.7236 9.82617 41.4463 9.08398C42.1787 8.3418 43.0283 7.76074 43.9951 7.34082C44.9717 6.9209 46.0117 6.71094 47.1152 6.71094C47.4668 6.71094 47.8281 6.74023 48.1992 6.79883C48.5801 6.85742 48.9463 6.95508 49.2979 7.0918C49.6592 7.21875 49.9961 7.38965 50.3086 7.60449C50.6211 7.81934 50.8848 8.08301 51.0996 8.39551V1.07129H55.1279V23ZM51.0996 15.0166C51.0996 14.4697 50.9922 13.9424 50.7773 13.4346C50.5723 12.917 50.2891 12.4629 49.9277 12.0723C49.5664 11.6719 49.1416 11.3545 48.6533 11.1201C48.1748 10.876 47.6621 10.7539 47.1152 10.7539C46.5684 10.7539 46.0508 10.8516 45.5625 11.0469C45.084 11.2422 44.6641 11.5254 44.3027 11.8965C43.9512 12.2578 43.6729 12.7021 43.4678 13.2295C43.2627 13.7568 43.1602 14.3525 43.1602 15.0166C43.1602 15.5928 43.2627 16.1396 43.4678 16.6572C43.6729 17.1748 43.9512 17.6289 44.3027 18.0195C44.6641 18.4102 45.084 18.7178 45.5625 18.9424C46.0508 19.167 46.5684 19.2793 47.1152 19.2793C47.6621 19.2793 48.1748 19.1621 48.6533 18.9277C49.1416 18.6836 49.5664 18.3662 49.9277 17.9756C50.2891 17.5752 50.5723 17.1211 50.7773 16.6133C50.9922 16.0957 51.0996 15.5635 51.0996 15.0166ZM62.9297 19.1621C63.0859 19.2109 63.2422 19.2451 63.3984 19.2646C63.5547 19.2744 63.7109 19.2793 63.8672 19.2793C64.2578 19.2793 64.6338 19.2256 64.9951 19.1182C65.3564 19.0107 65.6934 18.8594 66.0059 18.6641C66.3281 18.459 66.6113 18.2148 66.8555 17.9316C67.1094 17.6387 67.3145 17.3164 67.4707 16.9648L70.4004 19.9092C70.0293 20.4365 69.5996 20.9102 69.1113 21.3301C68.6328 21.75 68.1104 22.1064 67.5439 22.3994C66.9873 22.6924 66.3965 22.9121 65.7715 23.0586C65.1562 23.2148 64.5215 23.293 63.8672 23.293C62.7637 23.293 61.7236 23.0879 60.7471 22.6777C59.7803 22.2676 58.9307 21.6963 58.1982 20.9639C57.4756 20.2314 56.9043 19.3623 56.4844 18.3564C56.0645 17.3408 55.8545 16.2275 55.8545 15.0166C55.8545 13.7764 56.0645 12.6436 56.4844 11.6182C56.9043 10.5928 57.4756 9.71875 58.1982 8.99609C58.9307 8.27344 59.7803 7.71191 60.7471 7.31152C61.7236 6.91113 62.7637 6.71094 63.8672 6.71094C64.5215 6.71094 65.1611 6.78906 65.7861 6.94531C66.4111 7.10156 67.002 7.32617 67.5586 7.61914C68.125 7.91211 68.6523 8.27344 69.1406 8.70312C69.6289 9.12305 70.0586 9.59668 70.4297 10.124L62.9297 19.1621ZM64.9805 10.915C64.7949 10.8467 64.6094 10.8027 64.4238 10.7832C64.248 10.7637 64.0625 10.7539 63.8672 10.7539C63.3203 10.7539 62.8027 10.8564 62.3145 11.0615C61.8359 11.2568 61.416 11.54 61.0547 11.9111C60.7031 12.2822 60.4248 12.7314 60.2197 13.2588C60.0146 13.7764 59.9121 14.3623 59.9121 15.0166C59.9121 15.1631 59.917 15.3291 59.9268 15.5146C59.9463 15.7002 59.9707 15.8906 60 16.0859C60.0391 16.2715 60.083 16.4521 60.1318 16.6279C60.1807 16.8037 60.2441 16.96 60.3223 17.0967L64.9805 10.915ZM74.9502 23H70.9512V7.31152H71.918L73.2363 9.17188C73.8809 8.58594 74.6133 8.13672 75.4336 7.82422C76.2539 7.50195 77.1035 7.34082 77.9824 7.34082H81.5127V11.3252H77.9824C77.5625 11.3252 77.167 11.4033 76.7959 11.5596C76.4248 11.7158 76.1025 11.9307 75.8291 12.2041C75.5557 12.4775 75.3408 12.7998 75.1846 13.1709C75.0283 13.542 74.9502 13.9375 74.9502 14.3574V23ZM99.1289 12.4971C99.1289 13.4639 99.002 14.3965 98.748 15.2949C98.5039 16.1836 98.1523 17.0186 97.6934 17.7998C97.2344 18.5713 96.6875 19.2793 96.0527 19.9238C95.418 20.5586 94.71 21.1055 93.9287 21.5645C93.1475 22.0234 92.3076 22.3799 91.4092 22.6338C90.5205 22.8779 89.5928 23 88.626 23H82.2979V1.99414H88.626C89.5928 1.99414 90.5205 2.12109 91.4092 2.375C92.3076 2.61914 93.1475 2.9707 93.9287 3.42969C94.71 3.88867 95.418 4.44043 96.0527 5.08496C96.6875 5.71973 97.2344 6.42773 97.6934 7.20898C98.1523 7.98047 98.5039 8.81543 98.748 9.71387C99.002 10.6025 99.1289 11.5303 99.1289 12.4971ZM94.9248 12.4971C94.9248 11.6279 94.7588 10.8125 94.4268 10.0508C94.1045 9.28906 93.6553 8.625 93.0791 8.05859C92.5127 7.48242 91.8438 7.02832 91.0723 6.69629C90.3105 6.36426 89.4951 6.19824 88.626 6.19824H86.5312V18.7959H88.626C89.4951 18.7959 90.3105 18.6348 91.0723 18.3125C91.8438 17.9805 92.5127 17.5312 93.0791 16.9648C93.6553 16.3887 94.1045 15.7197 94.4268 14.958C94.7588 14.1865 94.9248 13.3662 94.9248 12.4971ZM115.163 15.0166C115.163 16.1885 114.953 17.2822 114.533 18.2979C114.113 19.3037 113.542 20.1777 112.819 20.9199C112.097 21.6523 111.247 22.2334 110.271 22.6631C109.304 23.083 108.264 23.293 107.15 23.293C106.047 23.293 105.007 23.083 104.03 22.6631C103.063 22.2334 102.214 21.6523 101.481 20.9199C100.759 20.1777 100.188 19.3037 99.7676 18.2979C99.3477 17.2822 99.1377 16.1885 99.1377 15.0166C99.1377 13.8252 99.3477 12.7217 99.7676 11.7061C100.188 10.6904 100.759 9.81641 101.481 9.08398C102.214 8.3418 103.063 7.76074 104.03 7.34082C105.007 6.9209 106.047 6.71094 107.15 6.71094C108.264 6.71094 109.304 6.91113 110.271 7.31152C111.247 7.70215 112.097 8.26367 112.819 8.99609C113.542 9.71875 114.113 10.5928 114.533 11.6182C114.953 12.6338 115.163 13.7666 115.163 15.0166ZM111.135 15.0166C111.135 14.3721 111.027 13.791 110.812 13.2734C110.607 12.7461 110.324 12.2969 109.963 11.9258C109.602 11.5449 109.177 11.2568 108.688 11.0615C108.21 10.8564 107.697 10.7539 107.15 10.7539C106.604 10.7539 106.086 10.8564 105.598 11.0615C105.119 11.2568 104.699 11.5449 104.338 11.9258C103.986 12.2969 103.708 12.7461 103.503 13.2734C103.298 13.791 103.195 14.3721 103.195 15.0166C103.195 15.6221 103.298 16.1836 103.503 16.7012C103.708 17.2188 103.986 17.668 104.338 18.0488C104.699 18.4297 105.119 18.7324 105.598 18.957C106.086 19.1719 106.604 19.2793 107.15 19.2793C107.697 19.2793 108.21 19.1768 108.688 18.9717C109.177 18.7666 109.602 18.4785 109.963 18.1074C110.324 17.7363 110.607 17.2871 110.812 16.7598C111.027 16.2324 111.135 15.6514 111.135 15.0166ZM120.65 3.04883C120.65 3.41992 120.577 3.7666 120.431 4.08887C120.294 4.41113 120.104 4.69434 119.859 4.93848C119.625 5.17285 119.342 5.36328 119.01 5.50977C118.688 5.64648 118.346 5.71484 117.984 5.71484C117.604 5.71484 117.247 5.64648 116.915 5.50977C116.593 5.36328 116.31 5.17285 116.065 4.93848C115.821 4.69434 115.626 4.41113 115.479 4.08887C115.343 3.7666 115.274 3.41992 115.274 3.04883C115.274 2.6875 115.343 2.3457 115.479 2.02344C115.626 1.69141 115.821 1.4082 116.065 1.17383C116.31 0.929687 116.593 0.739258 116.915 0.602539C117.247 0.456055 117.604 0.382812 117.984 0.382812C118.346 0.382812 118.688 0.456055 119.01 0.602539C119.342 0.739258 119.625 0.929687 119.859 1.17383C120.104 1.4082 120.294 1.69141 120.431 2.02344C120.577 2.3457 120.65 2.6875 120.65 3.04883ZM109.913 28.9766V24.9482L112.125 24.9775C112.662 24.9775 113.16 24.8652 113.619 24.6406C114.078 24.4258 114.474 24.1328 114.806 23.7617C115.147 23.4004 115.416 22.9805 115.611 22.502C115.807 22.0234 115.904 21.5205 115.904 20.9932V7.31152H119.991V20.9932H119.962C119.952 21.7256 119.85 22.4336 119.654 23.1172C119.469 23.8008 119.2 24.4355 118.849 25.0215C118.497 25.6172 118.077 26.1543 117.589 26.6328C117.101 27.1211 116.559 27.5361 115.963 27.8779C115.377 28.2295 114.747 28.498 114.073 28.6836C113.39 28.8789 112.682 28.9766 111.949 28.9766H109.913ZM136.685 15.0166C136.685 16.1885 136.475 17.2822 136.055 18.2979C135.635 19.3037 135.063 20.1777 134.341 20.9199C133.618 21.6523 132.769 22.2334 131.792 22.6631C130.825 23.083 129.785 23.293 128.672 23.293C127.568 23.293 126.528 23.083 125.552 22.6631C124.585 22.2334 123.735 21.6523 123.003 20.9199C122.28 20.1777 121.709 19.3037 121.289 18.2979C120.869 17.2822 120.659 16.1885 120.659 15.0166C120.659 13.8252 120.869 12.7217 121.289 11.7061C121.709 10.6904 122.28 9.81641 123.003 9.08398C123.735 8.3418 124.585 7.76074 125.552 7.34082C126.528 6.9209 127.568 6.71094 128.672 6.71094C129.785 6.71094 130.825 6.91113 131.792 7.31152C132.769 7.70215 133.618 8.26367 134.341 8.99609C135.063 9.71875 135.635 10.5928 136.055 11.6182C136.475 12.6338 136.685 13.7666 136.685 15.0166ZM132.656 15.0166C132.656 14.3721 132.549 13.791 132.334 13.2734C132.129 12.7461 131.846 12.2969 131.484 11.9258C131.123 11.5449 130.698 11.2568 130.21 11.0615C129.731 10.8564 129.219 10.7539 128.672 10.7539C128.125 10.7539 127.607 10.8564 127.119 11.0615C126.641 11.2568 126.221 11.5449 125.859 11.9258C125.508 12.2969 125.229 12.7461 125.024 13.2734C124.819 13.791 124.717 14.3721 124.717 15.0166C124.717 15.6221 124.819 16.1836 125.024 16.7012C125.229 17.2188 125.508 17.668 125.859 18.0488C126.221 18.4297 126.641 18.7324 127.119 18.957C127.607 19.1719 128.125 19.2793 128.672 19.2793C129.219 19.2793 129.731 19.1768 130.21 18.9717C130.698 18.7666 131.123 18.4785 131.484 18.1074C131.846 17.7363 132.129 17.2871 132.334 16.7598C132.549 16.2324 132.656 15.6514 132.656 15.0166Z" fill="black"/>
</svg>
