<svg xmlns="http://www.w3.org/2000/svg" width="498.88" height="86.725" viewBox="0 0 498.88 86.725">
  <g id="Group_1" data-name="Group 1" transform="translate(0 -0.557)">
    <path id="Path_1" data-name="Path 1" d="M118.19,52.752v7.926a15.614,15.614,0,0,1-1.414,6.277,10.8,10.8,0,0,1-3.376,4.239,10.086,10.086,0,0,1-6.512,1.961,10.324,10.324,0,0,1-6.593-1.961A10.574,10.574,0,0,1,97,66.955a15.747,15.747,0,0,1-1.414-6.277V26.692A15.606,15.606,0,0,1,97,20.492a10.793,10.793,0,0,1,3.295-4.316,10.812,10.812,0,0,1,6.593-1.965,10.544,10.544,0,0,1,6.512,1.965,11.047,11.047,0,0,1,3.376,4.316,15.625,15.625,0,0,1,1.414,6.2v7.926h-7.926V26.692a4.941,4.941,0,0,0-1.257-3.611,2.853,2.853,0,0,0-4.55,1.491,8.834,8.834,0,0,0-.393,2.123V60.682a5.408,5.408,0,0,0,1.337,3.607,2.225,2.225,0,0,0,1.645.628,2.733,2.733,0,0,0,2.906-2.119,5.571,5.571,0,0,0,.312-2.119V52.752Zm24.7,9.341c-.231,4.162-1.487,7.063-4.235,9.341a10.221,10.221,0,0,1-14.835-3.927,15.7,15.7,0,0,1-1.253-5.649V40.271c.235-4.162,1.488-7.217,4.235-9.572,1.337-1.183,3.3-1.73,5.888-1.73a9.194,9.194,0,0,1,8.948,5.572,15.27,15.27,0,0,1,1.252,5.5V62.093Zm-7.457-21.826a5.138,5.138,0,0,0-1.021-3.769,2.442,2.442,0,0,0-1.726-.628c-1.5,0-2.124,1.021-2.436,2.2a4.9,4.9,0,0,0-.235,2.2V61.849a5.192,5.192,0,0,0,1.021,3.688,2.247,2.247,0,0,0,1.65.628,2.476,2.476,0,0,0,2.508-2.119,4.844,4.844,0,0,0,.235-2.2V40.263l0,0Zm32.99,32.26H160.5V69.7a15.3,15.3,0,0,1-4,2.906,5.1,5.1,0,0,1-2.277.547,5.215,5.215,0,0,1-4.632-2.905,10.5,10.5,0,0,1-1.487-5.491V37.361a11.033,11.033,0,0,1,1.487-5.572,5.3,5.3,0,0,1,4.632-2.828,7.758,7.758,0,0,1,4.238,1.73c.706.547,1.334,1.1,2.039,1.726V14.835h7.926V72.527ZM160.5,39.011a2.7,2.7,0,0,0-2.355-2.589,2.346,2.346,0,0,0-2.119,2.589v24.1a2.344,2.344,0,0,0,2.119,2.589,2.524,2.524,0,0,0,2.355-2.589Zm34.14,18.13v4.948c-.235,4.162-1.487,7.063-4.315,9.341a9.006,9.006,0,0,1-5.965,1.726,9.134,9.134,0,0,1-8.948-5.653,15.783,15.783,0,0,1-1.256-5.649V40.267c.235-4.162,1.568-7.217,4.4-9.571,1.337-1.183,3.3-1.73,5.888-1.73a9.192,9.192,0,0,1,8.947,5.572,15.27,15.27,0,0,1,1.252,5.5V52.517H181.531v9.341a6.063,6.063,0,0,0,1.256,3.687,2.245,2.245,0,0,0,1.65.628,2.473,2.473,0,0,0,2.508-2.119,6.21,6.21,0,0,0,.312-2.2V57.145h7.379l0,0ZM181.531,46.309h5.73V40.263a5.543,5.543,0,0,0-1.1-3.769,2.442,2.442,0,0,0-1.726-.628c-1.5,0-2.124,1.021-2.513,2.2a8.628,8.628,0,0,0-.393,2.2v6.05Zm34.246-8.554a7.076,7.076,0,0,0-2.2-.312,5.5,5.5,0,0,0-4,1.333A4.606,4.606,0,0,0,207.85,42.7V72.527h-7.926V29.589h7.926v4.79a6.667,6.667,0,0,1,1.885-3.14,8.438,8.438,0,0,1,6.042-2.277v8.794Zm3.461,34.773V14.835h6.674c7.845,0,12.088,1.568,14.362,5.965,2.2,4.4,2.512,11.618,2.512,22.92s-.316,18.446-2.512,22.843c-2.274,4.4-6.517,5.965-14.362,5.965h-6.674Zm8.482-8.477c2.9,0,4.55-.316,5.414-3.145a25.134,25.134,0,0,0,.786-6.123c.081-2.747.081-6.435.081-11.148s0-8.4-.081-11.148a26.384,26.384,0,0,0-.786-6.123c-.86-2.748-2.509-3.059-5.414-3.059V64.05Zm40.267-1.961c-.231,4.162-1.487,7.063-4.234,9.341A10.222,10.222,0,0,1,248.917,67.5a15.615,15.615,0,0,1-1.252-5.649V40.267c.235-4.162,1.491-7.217,4.235-9.571,1.337-1.183,3.3-1.73,5.888-1.73a9.192,9.192,0,0,1,8.947,5.572,15.27,15.27,0,0,1,1.252,5.5V62.089Zm-7.456-21.826a5.134,5.134,0,0,0-1.022-3.769,2.442,2.442,0,0,0-1.726-.628c-1.495,0-2.123,1.021-2.435,2.2a4.9,4.9,0,0,0-.235,2.2V61.845a5.192,5.192,0,0,0,1.021,3.688,2.244,2.244,0,0,0,1.649.628,2.474,2.474,0,0,0,2.509-2.119,4.844,4.844,0,0,0,.235-2.2V40.259l0,0Zm12.736-25.432h7.927v7.926h-7.927Zm7.927,14.758V73.621c0,2.2,0,5.653-1.1,8.481-1.1,2.9-3.529,5.179-8.007,5.179a10.72,10.72,0,0,1-2.666-.235c-.316-.081-.547-.158-.787-.235v-7.3c.235.077.47.077.706.154a10.334,10.334,0,0,0,1.495.158c1.333,0,1.961-1.1,2.273-2.431a16.139,16.139,0,0,0,.158-2.042V29.589h7.927Zm25.882,32.5c-.231,4.162-1.491,7.063-4.235,9.341A10.221,10.221,0,0,1,288.006,67.5a15.7,15.7,0,0,1-1.252-5.649V40.267c.235-4.162,1.487-7.217,4.234-9.571,1.338-1.183,3.3-1.73,5.888-1.73a9.193,9.193,0,0,1,8.948,5.572,15.27,15.27,0,0,1,1.252,5.5V62.089Zm-7.457-21.826a5.133,5.133,0,0,0-1.021-3.769,2.442,2.442,0,0,0-1.726-.628c-1.491,0-2.123,1.021-2.435,2.2a4.9,4.9,0,0,0-.235,2.2V61.845a5.192,5.192,0,0,0,1.021,3.688,2.244,2.244,0,0,0,1.649.628,2.48,2.48,0,0,0,2.512-2.119,4.83,4.83,0,0,0,.235-2.2V40.263Z" fill-rule="evenodd"/>
    <path id="Path_2" data-name="Path 2" d="M43.136,86.361A42.48,42.48,0,1,0,.656,43.881,42.48,42.48,0,0,0,43.136,86.361Z" fill="#fefefe"/>
    <path id="Path_3" data-name="Path 3" d="M43.319.557A43.319,43.319,0,1,1,0,43.876,43.319,43.319,0,0,1,43.319.557ZM42.882,2.8c-.2,0-.405,0-.608.008a41.078,41.078,0,0,0,.077,82.148,20.54,20.54,0,0,1,.531-41.074,20.541,20.541,0,1,0,0-41.082Z" fill-rule="evenodd"/>
    <path id="Path_4" data-name="Path 4" d="M36.4,27.381V12.068A2.505,2.505,0,0,1,38.87,9.6h7.983a2.322,2.322,0,0,1,1.714.733,2.379,2.379,0,0,1,.721,1.734V27.381a2.463,2.463,0,0,1-2.468,2.464H38.87A2.449,2.449,0,0,1,36.4,27.381Zm10.362-.093V12.193h-7.8V27.288Z" fill-rule="evenodd"/>
    <path id="Path_5" data-name="Path 5" d="M39.314,73.677h3.931V58.582H39.379a1.245,1.245,0,0,1-.908-.373A1.223,1.223,0,0,1,38.1,57.3a1.273,1.273,0,0,1,1.281-1.277h6.427V73.681h2.561V68.352a1.253,1.253,0,0,1,.373-.9,1.213,1.213,0,0,1,.9-.381,1.273,1.273,0,0,1,1.28,1.281v6.609a1.254,1.254,0,0,1-.373.912,1.229,1.229,0,0,1-.908.369H39.314a1.21,1.21,0,0,1-.9-.385,1.279,1.279,0,0,1-.373-.924,1.213,1.213,0,0,1,.373-.887,1.245,1.245,0,0,1,.9-.365v0Z" fill="#fff" fill-rule="evenodd"/>
    <path id="Path_6" data-name="Path 6" d="M337.2,56.531q0,8.218-2.932,12.182-2.932,3.932-9.217,3.932t-9.41-4.189q-3.095-4.222-3.094-12.117V31.62q0-12.665,6.639-15.823a13.762,13.762,0,0,1,5.929-1.16q11.957,0,11.956,15.082v7.8h-8.346V30.267a18.612,18.612,0,0,0-.742-6.252,2.834,2.834,0,0,0-2.9-1.9,3.008,3.008,0,0,0-3,2,16.767,16.767,0,0,0-.838,6.123v26.49a18.876,18.876,0,0,0,.806,6.542,3.161,3.161,0,0,0,5.865-.032,19.3,19.3,0,0,0,.806-6.607V48.507H337.2Zm15.908,9.918a2.343,2.343,0,0,0,2.379-1.529,12.547,12.547,0,0,0,.651-4.616v-19a12.752,12.752,0,0,0-.651-4.673,2.639,2.639,0,0,0-4.815,0,12.615,12.615,0,0,0-.651,4.673v19q0,4.673,1.529,5.721A2.7,2.7,0,0,0,353.106,66.449Zm0,6.061q-6,0-8.327-3.6T342.457,58.52V42.632q0-13.622,10.62-13.622T363.7,42.632V58.52q0,10.62-5.465,13.056A12.564,12.564,0,0,1,353.106,72.51ZM368.9,72V21.731h7.476V72Zm23.323-5.551A2.342,2.342,0,0,0,394.6,64.92a12.523,12.523,0,0,0,.652-4.616v-19a12.727,12.727,0,0,0-.652-4.673,2.639,2.639,0,0,0-4.814,0,12.612,12.612,0,0,0-.652,4.673v19q0,4.673,1.53,5.721A2.7,2.7,0,0,0,392.219,66.449Zm0,6.061q-6,0-8.326-3.6T381.571,58.52V42.632q0-13.622,10.62-13.622t10.62,13.622V58.52q0,10.62-5.466,13.056A12.558,12.558,0,0,1,392.219,72.51Zm30.489-43.5a37.754,37.754,0,0,1,.113,4.758l-.028,1.586a13.339,13.339,0,0,0-4.446.765,4.657,4.657,0,0,0-2.861,2.181V72h-7.561V29.52h7.561v4.729a7.124,7.124,0,0,1,2.577-3.852A7.577,7.577,0,0,1,422.708,29.01Zm15.96,19.938a14.484,14.484,0,0,0-4.814,3,6.515,6.515,0,0,0-1.246,4.39V60.9a10.637,10.637,0,0,0,.623,4.276,2.092,2.092,0,0,0,2.01,1.274,3,3,0,0,0,2.294-.935,4.271,4.271,0,0,0,1.133-2.152Zm-5.919,23.477q-4.162,0-5.947-2.974-1.785-3-1.841-8.609V58.123q0-5.437,2.945-8.241a19.349,19.349,0,0,1,6.429-3.568q.822-.312,2.266-.85,1.471-.538,2.067-.765v-3.71a14.056,14.056,0,0,0-.51-4.673,2.141,2.141,0,0,0-2.265-1.246,2.326,2.326,0,0,0-2.351,1.3,11.528,11.528,0,0,0-.6,4.39v1.9h-7.42V41.386q0-6.032,2.238-9.2,2.265-3.172,7.986-3.172,5.75,0,8.156,3.172,2.436,3.172,2.436,9.516V72h-7.562V67.78a6.69,6.69,0,0,1-2.18,3.314A5.793,5.793,0,0,1,432.749,72.425Zm26.184,0a6.479,6.479,0,0,1-5.126-1.926,9.68,9.68,0,0,1-2.209-4.871,45.861,45.861,0,0,1-.481-7.193v-17.3a17.341,17.341,0,0,1,1.954-8.723q1.953-3.4,6.457-3.4a6.2,6.2,0,0,1,3.2.85,6.084,6.084,0,0,1,2.294,2.294V21.731h7.505V72h-7.505V68.063Q463.323,72.425,458.933,72.425Zm-.255-12.971a16.063,16.063,0,0,0,.651,5.268,2.682,2.682,0,0,0,5.013,0,17.08,17.08,0,0,0,.708-5.834V41.9q0-5.239-1.586-6.344a2.891,2.891,0,0,0-1.642-.453,2.444,2.444,0,0,0-2.521,1.728,16.11,16.11,0,0,0-.623,5.154Zm29.611,7a2.343,2.343,0,0,0,2.379-1.529,12.548,12.548,0,0,0,.651-4.616v-19a12.752,12.752,0,0,0-.651-4.673,2.639,2.639,0,0,0-4.815,0A12.616,12.616,0,0,0,485.2,41.3v19q0,4.673,1.529,5.721A2.7,2.7,0,0,0,488.289,66.449Zm0,6.061q-6,0-8.327-3.6T477.64,58.52V42.632q0-13.622,10.62-13.622t10.62,13.622V58.52q0,10.62-5.465,13.056A12.561,12.561,0,0,1,488.289,72.51Z" fill="#49b749"/>
  </g>
</svg>
